<svg width="20" height="16" viewBox="0 0 20 16" fill="none" xmlns="http://www.w3.org/2000/svg">
<path fill-rule="evenodd" clip-rule="evenodd" d="M10.0027 0.667114C13.794 0.669864 17.1985 3.32728 19.1107 7.77678C19.1858 7.95003 19.1858 8.1462 19.1107 8.31945C17.1994 12.7699 13.794 15.4273 10.0027 15.43H9.99718C6.20585 15.4273 2.80135 12.7699 0.889184 8.31945C0.814934 8.1462 0.814934 7.95003 0.889184 7.77678C2.80135 3.32728 6.20677 0.669864 9.99718 0.667114H10.0027ZM9.99993 2.04211C6.85027 2.04303 3.97743 4.28245 2.27243 8.04811C3.97743 11.8147 6.84935 14.0541 9.99993 14.055C13.1505 14.0541 16.0224 11.8147 17.7274 8.04811C16.0224 4.28245 13.1505 2.04303 9.99993 2.04211ZM9.99966 4.46285C11.9769 4.46285 13.5857 6.0716 13.5857 8.04885C13.5857 10.0252 11.9769 11.633 9.99966 11.633C8.02241 11.633 6.41457 10.0252 6.41457 8.04885C6.41457 6.0716 8.02241 4.46285 9.99966 4.46285ZM9.99966 5.83785C8.78049 5.83785 7.78957 6.82968 7.78957 8.04885C7.78957 9.2671 8.78049 10.258 9.99966 10.258C11.2188 10.258 12.2107 9.2671 12.2107 8.04885C12.2107 6.82968 11.2188 5.83785 9.99966 5.83785Z" fill="black"/>
</svg>
