<svg width="22" height="22" viewBox="0 0 22 22" fill="none" xmlns="http://www.w3.org/2000/svg">
<path fill-rule="evenodd" clip-rule="evenodd" d="M11.3435 1.83499C14.0202 1.83499 16.2 4.01483 16.2 6.69424L16.1999 8.13946C17.8272 8.70579 18.9978 10.255 18.9978 12.0731V16.0046C18.9978 18.3009 17.1305 20.1681 14.8343 20.1681H7.83C5.53375 20.1681 3.6665 18.3009 3.6665 16.0046V12.0731C3.6665 10.2553 4.83665 8.70637 6.46344 8.13978L6.46408 6.69424C6.46958 5.37424 6.98016 4.15599 7.90141 3.24299C8.82358 2.32908 10.0409 1.80016 11.3435 1.83499ZM14.8343 9.28456H7.83C6.29184 9.28456 5.0415 10.5349 5.0415 12.0731V16.0046C5.0415 17.5428 6.29184 18.7931 7.83 18.7931H14.8343C16.3715 18.7931 17.6228 17.5428 17.6228 16.0046V12.0731C17.6228 10.5349 16.3715 9.28456 14.8343 9.28456ZM11.3319 12.3332C11.7114 12.3332 12.0194 12.6412 12.0194 13.0207V15.0566C12.0194 15.4361 11.7114 15.7441 11.3319 15.7441C10.9524 15.7441 10.6444 15.4361 10.6444 15.0566V13.0207C10.6444 12.6412 10.9524 12.3332 11.3319 12.3332ZM11.3407 3.20999H11.3261C10.3975 3.20999 9.52758 3.56749 8.87033 4.21924C8.2085 4.87374 7.84275 5.74733 7.83908 6.67866L7.83825 7.90904H14.8242L14.825 6.69424C14.825 4.77291 13.2621 3.20999 11.3407 3.20999Z" fill="#6F767E"/>
</svg>
