<svg width="21" height="19" viewBox="0 0 21 19" fill="none" xmlns="http://www.w3.org/2000/svg">
<path fill-rule="evenodd" clip-rule="evenodd" d="M15.2706 0.833374C18.3231 0.833374 20.6248 3.32396 20.6248 6.62671V12.9224C20.6248 14.6127 20.0272 16.1399 18.9409 17.2234C17.9665 18.1941 16.7024 18.7084 15.2853 18.7084H6.25334C4.83892 18.7084 3.57575 18.195 2.60042 17.2234C1.51417 16.1399 0.916504 14.6127 0.916504 12.9224V6.62671C0.916504 3.32396 3.21825 0.833374 6.27075 0.833374H15.2706ZM15.2706 2.20837H6.27075C3.96534 2.20837 2.2915 4.06646 2.2915 6.62671V12.9224C2.2915 14.2451 2.74617 15.4267 3.57117 16.249C4.2825 16.9594 5.21109 17.3334 6.25609 17.3334H15.2706C15.2724 17.3315 15.2798 17.3334 15.2853 17.3334C16.3312 17.3334 17.2588 16.9594 17.9702 16.249C18.7961 15.4267 19.2498 14.2451 19.2498 12.9224V6.62671C19.2498 4.06646 17.576 2.20837 15.2706 2.20837ZM16.7153 6.45144C16.9545 6.74569 16.9096 7.17836 16.6153 7.41852L12.5417 10.7295C12.0265 11.1384 11.4105 11.3428 10.7954 11.3428C10.1822 11.3428 9.57075 11.1402 9.05925 10.735L4.948 7.42036C4.65192 7.18202 4.60609 6.74844 4.8435 6.45327C5.08275 6.15902 5.51542 6.11227 5.81059 6.34969L9.91817 9.66069C10.4343 10.0695 11.1612 10.0695 11.6809 9.65702L15.7473 6.35152C16.0424 6.11044 16.4751 6.15627 16.7153 6.45144Z" fill="#6F767E"/>
</svg>
