<svg width="18" height="13" viewBox="0 0 18 13" fill="none" xmlns="http://www.w3.org/2000/svg">
<path fill-rule="evenodd" clip-rule="evenodd" d="M8.89473 6.8535H8.91498C10.805 6.8535 12.3417 5.316 12.3417 3.42675C12.3417 1.5375 10.805 0 8.91498 0C7.02573 0 5.48898 1.5375 5.48898 3.4245C5.48523 4.33725 5.83698 5.19675 6.48048 5.844C7.12248 6.492 7.97973 6.8505 8.89473 6.8535ZM6.61398 3.42675C6.61398 2.15775 7.64598 1.125 8.91498 1.125C10.184 1.125 11.2167 2.15775 11.2167 3.42675C11.2167 4.6965 10.184 5.7285 8.91498 5.7285H8.89623C8.28423 5.72625 7.70973 5.4855 7.27848 5.05125C6.84723 4.617 6.61173 4.04175 6.61398 3.42675Z" fill="#6F767E"/>
<path d="M12.8585 5.62538C12.8983 5.90663 13.139 6.10988 13.415 6.10988C13.4405 6.10988 13.4668 6.10838 13.493 6.10463C14.8243 5.91788 15.83 4.76288 15.833 3.41663C15.833 2.07938 14.8753 0.95138 13.5568 0.73463C13.2485 0.68588 12.9613 0.891379 12.9103 1.19813C12.86 1.50488 13.0678 1.79438 13.3738 1.84463C14.147 1.97138 14.708 2.63288 14.708 3.41513C14.7065 4.20413 14.1178 4.88063 13.3378 4.99013C13.0295 5.03288 12.8158 5.31713 12.8585 5.62538Z" fill="#6F767E"/>
<path d="M15.1202 10.5361C15.2057 10.7604 15.4195 10.8984 15.646 10.8984C15.7127 10.8984 15.7802 10.8864 15.8462 10.8616C16.9187 10.4529 17.0792 9.70812 17.0792 9.30012C17.0792 8.63187 16.6975 7.77837 14.8802 7.50612C14.5705 7.46637 14.2855 7.67112 14.2397 7.97862C14.194 8.28687 14.4062 8.57262 14.713 8.61912C15.5365 8.74212 15.9542 8.97162 15.9542 9.30012C15.9542 9.40287 15.9542 9.61662 15.4457 9.81012C15.1555 9.92037 15.0092 10.2459 15.1202 10.5361Z" fill="#6F767E"/>
<path fill-rule="evenodd" clip-rule="evenodd" d="M8.91496 12.5932C7.67071 12.5932 3.88321 12.5932 3.88321 10.197C3.88321 7.81046 7.67071 7.81046 8.91496 7.81046C10.1592 7.81046 13.946 7.81046 13.946 10.2097C13.946 12.5932 10.2912 12.5932 8.91496 12.5932ZM8.91496 8.93546C7.13296 8.93546 5.00821 9.15446 5.00821 10.197C5.00821 11.2477 7.13296 11.4682 8.91496 11.4682C10.697 11.4682 12.821 11.25 12.821 10.2097C12.821 9.15671 10.697 8.93546 8.91496 8.93546Z" fill="#6F767E"/>
<path d="M4.4142 6.10984C4.3887 6.10984 4.36245 6.10834 4.3362 6.10459C3.00495 5.91784 1.99995 4.76284 1.99695 3.41809C1.99695 2.07934 2.9547 0.951338 4.2732 0.734588C4.58895 0.685088 4.8687 0.892838 4.9197 1.19809C4.96995 1.50484 4.7622 1.79434 4.4562 1.84459C3.68295 1.97134 3.12195 2.63284 3.12195 3.41659C3.12345 4.20409 3.7122 4.88134 4.49145 4.99009C4.7997 5.03284 5.01345 5.31709 4.9707 5.62534C4.93095 5.90659 4.6902 6.10984 4.4142 6.10984Z" fill="#6F767E"/>
<path d="M1.98375 10.8616C2.04975 10.8864 2.11725 10.8984 2.184 10.8984C2.4105 10.8984 2.62425 10.7604 2.70975 10.5361C2.82075 10.2459 2.6745 9.92039 2.38425 9.81014C1.875 9.61589 1.875 9.40289 1.875 9.30014C1.875 8.97164 2.29275 8.74214 3.11625 8.61914C3.423 8.57264 3.63525 8.28689 3.5895 7.97864C3.543 7.67114 3.2595 7.46714 2.94975 7.50614C1.13175 7.77839 0.75 8.63264 0.75 9.30014C0.75 9.70739 0.9105 10.4521 1.98375 10.8616Z" fill="#6F767E"/>
</svg>
